<mxfile host="Electron" modified="2023-09-07T11:31:51.397Z" agent="Mozilla/5.0 (Windows NT 10.0; Win64; x64) AppleWebKit/537.36 (KHTML, like Gecko) draw.io/21.6.5 Chrome/114.0.5735.243 Electron/25.3.1 Safari/537.36" etag="ekP9_ixVh2d9gGz7vBcV" version="21.6.5" type="device">
  <diagram name="Page-1" id="2YBvvXClWsGukQMizWep">
    <mxGraphModel dx="1418" dy="828" grid="1" gridSize="10" guides="1" tooltips="1" connect="1" arrows="1" fold="1" page="1" pageScale="1" pageWidth="827" pageHeight="1169" math="0" shadow="0">
      <root>
        <mxCell id="0" />
        <mxCell id="1" parent="0" />
        <mxCell id="aM9ryv3xv72pqoxQDRHE-1" value=":一般消息頁面" style="shape=umlLifeline;perimeter=lifelinePerimeter;whiteSpace=wrap;html=1;container=0;dropTarget=0;collapsible=0;recursiveResize=0;outlineConnect=0;portConstraint=eastwest;newEdgeStyle={&quot;edgeStyle&quot;:&quot;elbowEdgeStyle&quot;,&quot;elbow&quot;:&quot;vertical&quot;,&quot;curved&quot;:0,&quot;rounded&quot;:0};" parent="1" vertex="1">
          <mxGeometry x="175" y="50" width="100" height="680" as="geometry" />
        </mxCell>
        <mxCell id="aM9ryv3xv72pqoxQDRHE-2" value="" style="html=1;points=[];perimeter=orthogonalPerimeter;outlineConnect=0;targetShapes=umlLifeline;portConstraint=eastwest;newEdgeStyle={&quot;edgeStyle&quot;:&quot;elbowEdgeStyle&quot;,&quot;elbow&quot;:&quot;vertical&quot;,&quot;curved&quot;:0,&quot;rounded&quot;:0};" parent="aM9ryv3xv72pqoxQDRHE-1" vertex="1">
          <mxGeometry x="45" y="70" width="10" height="550" as="geometry" />
        </mxCell>
        <mxCell id="ceOm1Rmb6s5dr9ztonqF-9" value="" style="html=1;points=[];perimeter=orthogonalPerimeter;outlineConnect=0;targetShapes=umlLifeline;portConstraint=eastwest;newEdgeStyle={&quot;edgeStyle&quot;:&quot;elbowEdgeStyle&quot;,&quot;elbow&quot;:&quot;vertical&quot;,&quot;curved&quot;:0,&quot;rounded&quot;:0};" parent="aM9ryv3xv72pqoxQDRHE-1" vertex="1">
          <mxGeometry x="55" y="310" width="10" height="70" as="geometry" />
        </mxCell>
        <mxCell id="ceOm1Rmb6s5dr9ztonqF-10" value="載入編輯介面" style="html=1;align=left;spacingLeft=2;endArrow=block;rounded=0;edgeStyle=orthogonalEdgeStyle;curved=0;rounded=0;" parent="aM9ryv3xv72pqoxQDRHE-1" source="aM9ryv3xv72pqoxQDRHE-2" target="ceOm1Rmb6s5dr9ztonqF-9" edge="1">
          <mxGeometry relative="1" as="geometry">
            <mxPoint x="55" y="304" as="sourcePoint" />
            <Array as="points">
              <mxPoint x="90" y="290" />
              <mxPoint x="90" y="320" />
            </Array>
          </mxGeometry>
        </mxCell>
        <mxCell id="FATohEn67VC4ZCUtdnCY-14" value="" style="shape=umlLifeline;perimeter=lifelinePerimeter;whiteSpace=wrap;html=1;container=1;dropTarget=0;collapsible=0;recursiveResize=0;outlineConnect=0;portConstraint=eastwest;newEdgeStyle={&quot;edgeStyle&quot;:&quot;elbowEdgeStyle&quot;,&quot;elbow&quot;:&quot;vertical&quot;,&quot;curved&quot;:0,&quot;rounded&quot;:0};participant=umlActor;size=60;" parent="1" vertex="1">
          <mxGeometry x="40" y="40" width="30" height="690" as="geometry" />
        </mxCell>
        <mxCell id="FATohEn67VC4ZCUtdnCY-15" value="點選一般消息" style="html=1;verticalAlign=bottom;endArrow=block;edgeStyle=elbowEdgeStyle;elbow=vertical;curved=0;rounded=0;" parent="1" source="FATohEn67VC4ZCUtdnCY-14" target="aM9ryv3xv72pqoxQDRHE-2" edge="1">
          <mxGeometry width="80" relative="1" as="geometry">
            <mxPoint x="54.810344827586164" y="129.9968965517242" as="sourcePoint" />
            <mxPoint x="220" y="129.9968965517242" as="targetPoint" />
            <Array as="points">
              <mxPoint x="140" y="120" />
            </Array>
          </mxGeometry>
        </mxCell>
        <mxCell id="CKTwQmuFr4gLuuUH_9-y-1" value=":一般消息資料庫" style="shape=umlLifeline;perimeter=lifelinePerimeter;whiteSpace=wrap;html=1;container=0;dropTarget=0;collapsible=0;recursiveResize=0;outlineConnect=0;portConstraint=eastwest;newEdgeStyle={&quot;edgeStyle&quot;:&quot;elbowEdgeStyle&quot;,&quot;elbow&quot;:&quot;vertical&quot;,&quot;curved&quot;:0,&quot;rounded&quot;:0};" parent="1" vertex="1">
          <mxGeometry x="354" y="50" width="120" height="680" as="geometry" />
        </mxCell>
        <mxCell id="CKTwQmuFr4gLuuUH_9-y-2" value="" style="html=1;points=[];perimeter=orthogonalPerimeter;outlineConnect=0;targetShapes=umlLifeline;portConstraint=eastwest;newEdgeStyle={&quot;edgeStyle&quot;:&quot;elbowEdgeStyle&quot;,&quot;elbow&quot;:&quot;vertical&quot;,&quot;curved&quot;:0,&quot;rounded&quot;:0};" parent="CKTwQmuFr4gLuuUH_9-y-1" vertex="1">
          <mxGeometry x="55" y="100" width="10" height="100" as="geometry" />
        </mxCell>
        <mxCell id="ItiBLyQB8SKyGbtP-Z__-48" value="" style="html=1;points=[];perimeter=orthogonalPerimeter;outlineConnect=0;targetShapes=umlLifeline;portConstraint=eastwest;newEdgeStyle={&quot;edgeStyle&quot;:&quot;elbowEdgeStyle&quot;,&quot;elbow&quot;:&quot;vertical&quot;,&quot;curved&quot;:0,&quot;rounded&quot;:0};" parent="CKTwQmuFr4gLuuUH_9-y-1" vertex="1">
          <mxGeometry x="55" y="480" width="10" height="120" as="geometry" />
        </mxCell>
        <mxCell id="CKTwQmuFr4gLuuUH_9-y-3" value="載入一般消息" style="html=1;verticalAlign=bottom;endArrow=block;edgeStyle=elbowEdgeStyle;elbow=vertical;curved=0;rounded=0;" parent="1" source="aM9ryv3xv72pqoxQDRHE-2" target="CKTwQmuFr4gLuuUH_9-y-2" edge="1">
          <mxGeometry width="80" relative="1" as="geometry">
            <mxPoint x="230" y="149.99724137931034" as="sourcePoint" />
            <mxPoint x="413" y="150.14" as="targetPoint" />
            <Array as="points">
              <mxPoint x="323" y="150" />
            </Array>
          </mxGeometry>
        </mxCell>
        <mxCell id="CKTwQmuFr4gLuuUH_9-y-4" value="傳回一般消息資料" style="html=1;verticalAlign=bottom;endArrow=open;dashed=1;endSize=8;edgeStyle=elbowEdgeStyle;elbow=vertical;curved=0;rounded=0;" parent="1" source="CKTwQmuFr4gLuuUH_9-y-2" target="aM9ryv3xv72pqoxQDRHE-2" edge="1">
          <mxGeometry relative="1" as="geometry">
            <mxPoint x="230" y="230" as="targetPoint" />
            <Array as="points">
              <mxPoint x="325" y="230" />
            </Array>
            <mxPoint x="420" y="230" as="sourcePoint" />
          </mxGeometry>
        </mxCell>
        <mxCell id="ceOm1Rmb6s5dr9ztonqF-2" value="點選編輯一般消息" style="html=1;verticalAlign=bottom;endArrow=block;edgeStyle=elbowEdgeStyle;elbow=vertical;curved=0;rounded=0;" parent="1" source="FATohEn67VC4ZCUtdnCY-14" target="aM9ryv3xv72pqoxQDRHE-2" edge="1">
          <mxGeometry width="80" relative="1" as="geometry">
            <mxPoint x="54.666666666666515" y="310" as="sourcePoint" />
            <mxPoint x="220" y="310" as="targetPoint" />
            <Array as="points">
              <mxPoint x="150" y="320" />
            </Array>
          </mxGeometry>
        </mxCell>
        <mxCell id="ceOm1Rmb6s5dr9ztonqF-6" value="顯示編輯介面" style="html=1;verticalAlign=bottom;endArrow=open;dashed=1;endSize=8;edgeStyle=elbowEdgeStyle;elbow=vertical;curved=0;rounded=0;" parent="1" source="aM9ryv3xv72pqoxQDRHE-2" target="FATohEn67VC4ZCUtdnCY-14" edge="1">
          <mxGeometry relative="1" as="geometry">
            <mxPoint x="420.00034482758605" y="449.99758620689653" as="targetPoint" />
            <Array as="points">
              <mxPoint x="170" y="450" />
            </Array>
            <mxPoint x="585.19" y="450.17" as="sourcePoint" />
          </mxGeometry>
        </mxCell>
        <mxCell id="ceOm1Rmb6s5dr9ztonqF-8" value="儲存變更" style="html=1;verticalAlign=bottom;endArrow=block;edgeStyle=elbowEdgeStyle;elbow=vertical;curved=0;rounded=0;" parent="1" source="FATohEn67VC4ZCUtdnCY-14" target="aM9ryv3xv72pqoxQDRHE-2" edge="1">
          <mxGeometry width="80" relative="1" as="geometry">
            <mxPoint x="54.666666666666515" y="514" as="sourcePoint" />
            <mxPoint x="220" y="514" as="targetPoint" />
            <Array as="points">
              <mxPoint x="150" y="514" />
            </Array>
          </mxGeometry>
        </mxCell>
        <mxCell id="ceOm1Rmb6s5dr9ztonqF-11" value="寫入變更" style="html=1;verticalAlign=bottom;endArrow=block;edgeStyle=elbowEdgeStyle;elbow=vertical;curved=0;rounded=0;" parent="1" source="aM9ryv3xv72pqoxQDRHE-2" target="ItiBLyQB8SKyGbtP-Z__-48" edge="1">
          <mxGeometry x="-0.0036" width="80" relative="1" as="geometry">
            <mxPoint x="230" y="554" as="sourcePoint" />
            <mxPoint x="414" y="564" as="targetPoint" />
            <Array as="points">
              <mxPoint x="340" y="530" />
            </Array>
            <mxPoint as="offset" />
          </mxGeometry>
        </mxCell>
        <mxCell id="ceOm1Rmb6s5dr9ztonqF-14" value="寫入成功" style="html=1;verticalAlign=bottom;endArrow=open;dashed=1;endSize=8;edgeStyle=elbowEdgeStyle;elbow=vertical;curved=0;rounded=0;" parent="1" source="ItiBLyQB8SKyGbtP-Z__-48" target="aM9ryv3xv72pqoxQDRHE-2" edge="1">
          <mxGeometry relative="1" as="geometry">
            <mxPoint x="230" y="624" as="targetPoint" />
            <Array as="points">
              <mxPoint x="330" y="630" />
            </Array>
            <mxPoint x="405" y="624" as="sourcePoint" />
          </mxGeometry>
        </mxCell>
        <mxCell id="ceOm1Rmb6s5dr9ztonqF-15" value="提示儲存成功" style="html=1;verticalAlign=bottom;endArrow=open;dashed=1;endSize=8;edgeStyle=elbowEdgeStyle;elbow=vertical;curved=0;rounded=0;" parent="1" source="aM9ryv3xv72pqoxQDRHE-2" target="FATohEn67VC4ZCUtdnCY-14" edge="1">
          <mxGeometry relative="1" as="geometry">
            <mxPoint x="54.666666666666515" y="644" as="targetPoint" />
            <Array as="points">
              <mxPoint x="150" y="650" />
            </Array>
            <mxPoint x="220" y="644" as="sourcePoint" />
          </mxGeometry>
        </mxCell>
        <mxCell id="ceOm1Rmb6s5dr9ztonqF-16" value="顯示一般消息" style="html=1;verticalAlign=bottom;endArrow=open;dashed=1;endSize=8;edgeStyle=elbowEdgeStyle;elbow=vertical;curved=0;rounded=0;" parent="1" source="aM9ryv3xv72pqoxQDRHE-2" target="FATohEn67VC4ZCUtdnCY-14" edge="1">
          <mxGeometry relative="1" as="geometry">
            <mxPoint x="240" y="240" as="targetPoint" />
            <Array as="points">
              <mxPoint x="170" y="250" />
            </Array>
            <mxPoint x="419" y="240" as="sourcePoint" />
          </mxGeometry>
        </mxCell>
      </root>
    </mxGraphModel>
  </diagram>
</mxfile>
